HIERARCHY
ROOT Hips
{
	OFFSET 0.000000 100.481300 0.000000
	CHANNELS 6 Xposition Yposition Zposition Xrotation Yrotation Zrotation
	JOINT Spine
	{
		OFFSET -0.279200 12.230698 -2.892100
		CHANNELS 3 Xrotation Yrotation Zrotation
		JOINT Spine1
		{
			OFFSET -0.325700 14.269203 -3.374200
			CHANNELS 3 Xrotation Yrotation Zrotation
			JOINT Spine2
			{
				OFFSET -0.372300 16.307602 -0.352600
				CHANNELS 3 Xrotation Yrotation Zrotation
				JOINT Neck
				{
					OFFSET -0.418800 17.814194 8.416900
					CHANNELS 3 Xrotation Yrotation Zrotation
					JOINT Head
					{
						OFFSET 0.000000 7.031097 3.806800
						CHANNELS 3 Xrotation Yrotation Zrotation
						JOINT HeadTop_End
						{
							OFFSET 0.000000 24.646606 12.978600
							CHANNELS 3 Xrotation Yrotation Zrotation
							End Site
							{
								OFFSET 0.000000 27.854965 0.000000
							}
						}
					}
				}
				JOINT LeftShoulder
				{
					OFFSET 16.952999 14.495407 -7.737500
					CHANNELS 3 Xrotation Yrotation Zrotation
					JOINT LeftArm
					{
						OFFSET 9.308998 -2.777710 0.208600
						CHANNELS 3 Xrotation Yrotation Zrotation
						JOINT LeftForeArm
						{
							OFFSET 29.972298 0.000000 0.000000
							CHANNELS 3 Xrotation Yrotation Zrotation
							JOINT LeftHand
							{
								OFFSET 26.026505 0.000000 0.000000
								CHANNELS 3 Xrotation Yrotation Zrotation
								JOINT LeftHandThumb1
								{
									OFFSET 12.240501 -7.147949 9.207150
									CHANNELS 3 Xrotation Yrotation Zrotation
									JOINT LeftHandThumb2
									{
										OFFSET 4.138618 -2.389435 2.389433
										CHANNELS 3 Xrotation Yrotation Zrotation
										JOINT LeftHandThumb3
										{
											OFFSET 2.726913 -1.574387 1.574386
											CHANNELS 3 Xrotation Yrotation Zrotation
											JOINT LeftHandThumb4
											{
												OFFSET 3.941010 -2.275345 2.275342
												CHANNELS 3 Xrotation Yrotation Zrotation
												End Site
												{
													OFFSET -0.005798 5.087799 0.009903
												}
											}
										}
									}
								}
								JOINT LeftHandIndex1
								{
									OFFSET 24.424698 -1.985611 5.953459
									CHANNELS 3 Xrotation Yrotation Zrotation
									JOINT LeftHandIndex2
									{
										OFFSET 6.426697 0.000000 0.000000
										CHANNELS 3 Xrotation Yrotation Zrotation
										JOINT LeftHandIndex3
										{
											OFFSET 5.337898 0.000000 0.000000
											CHANNELS 3 Xrotation Yrotation Zrotation
											JOINT LeftHandIndex4
											{
												OFFSET 4.409401 0.000000 0.000000
												CHANNELS 3 Xrotation Yrotation Zrotation
												End Site
												{
													OFFSET 0.000000 4.409363 0.014373
												}
											}
										}
									}
								}
								JOINT LeftHandMiddle1
								{
									OFFSET 23.810104 0.000000 0.000000
									CHANNELS 3 Xrotation Yrotation Zrotation
									JOINT LeftHandMiddle2
									{
										OFFSET 7.176498 0.000000 0.000000
										CHANNELS 3 Xrotation Yrotation Zrotation
										JOINT LeftHandMiddle3
										{
											OFFSET 6.774902 0.000000 0.000000
											CHANNELS 3 Xrotation Yrotation Zrotation
											JOINT LeftHandMiddle4
											{
												OFFSET 5.403328 0.000000 0.000000
												CHANNELS 3 Xrotation Yrotation Zrotation
												End Site
												{
													OFFSET -0.027702 5.403244 0.017414
												}
											}
										}
									}
								}
								JOINT LeftHandRing1
								{
									OFFSET 22.908401 -0.839279 -6.020567
									CHANNELS 3 Xrotation Yrotation Zrotation
									JOINT LeftHandRing2
									{
										OFFSET 6.337502 0.000000 0.000000
										CHANNELS 3 Xrotation Yrotation Zrotation
										JOINT LeftHandRing3
										{
											OFFSET 5.779297 0.000000 0.000000
											CHANNELS 3 Xrotation Yrotation Zrotation
											JOINT LeftHandRing4
											{
												OFFSET 4.965698 0.000000 0.000000
												CHANNELS 3 Xrotation Yrotation Zrotation
												End Site
												{
													OFFSET 0.000000 4.965668 0.016186
												}
											}
										}
									}
								}
								JOINT LeftHandPinky1
								{
									OFFSET 20.037003 -1.530319 -10.950146
									CHANNELS 3 Xrotation Yrotation Zrotation
									JOINT LeftHandPinky2
									{
										OFFSET 5.254700 0.000000 0.000000
										CHANNELS 3 Xrotation Yrotation Zrotation
										JOINT LeftHandPinky3
										{
											OFFSET 4.810204 0.000000 0.000000
											CHANNELS 3 Xrotation Yrotation Zrotation
											JOINT LeftHandPinky4
											{
												OFFSET 3.647202 0.000000 0.000000
												CHANNELS 3 Xrotation Yrotation Zrotation
												End Site
												{
													OFFSET 0.000000 3.647186 0.011889
												}
											}
										}
									}
								}
							}
						}
					}
				}
				JOINT RightShoulder
				{
					OFFSET -15.141001 14.495407 -7.737500
					CHANNELS 3 Xrotation Yrotation Zrotation
					JOINT RightArm
					{
						OFFSET -9.308998 -2.777710 0.208500
						CHANNELS 3 Xrotation Yrotation Zrotation
						JOINT RightForeArm
						{
							OFFSET -29.972300 0.000000 0.000000
							CHANNELS 3 Xrotation Yrotation Zrotation
							JOINT RightHand
							{
								OFFSET -26.026505 0.000000 0.000000
								CHANNELS 3 Xrotation Yrotation Zrotation
								JOINT RightHandThumb1
								{
									OFFSET -12.240601 -7.148026 9.207092
									CHANNELS 3 Xrotation Yrotation Zrotation
									JOINT RightHandThumb2
									{
										OFFSET -4.138618 -2.389435 2.389433
										CHANNELS 3 Xrotation Yrotation Zrotation
										JOINT RightHandThumb3
										{
											OFFSET -2.726974 -1.574417 1.574421
											CHANNELS 3 Xrotation Yrotation Zrotation
											JOINT RightHandThumb4
											{
												OFFSET -3.941010 -2.275345 2.275343
												CHANNELS 3 Xrotation Yrotation Zrotation
												End Site
												{
													OFFSET 0.005814 5.087799 0.009927
												}
											}
										}
									}
								}
								JOINT RightHandIndex1
								{
									OFFSET -24.424698 -1.985657 5.953444
									CHANNELS 3 Xrotation Yrotation Zrotation
									JOINT RightHandIndex2
									{
										OFFSET -6.426697 0.000000 0.000000
										CHANNELS 3 Xrotation Yrotation Zrotation
										JOINT RightHandIndex3
										{
											OFFSET -5.337898 0.000000 0.000000
											CHANNELS 3 Xrotation Yrotation Zrotation
											JOINT RightHandIndex4
											{
												OFFSET -4.409401 0.000000 0.000000
												CHANNELS 3 Xrotation Yrotation Zrotation
												End Site
												{
													OFFSET 0.000000 4.409363 0.014408
												}
											}
										}
									}
								}
								JOINT RightHandMiddle1
								{
									OFFSET -23.810097 0.000000 0.000000
									CHANNELS 3 Xrotation Yrotation Zrotation
									JOINT RightHandMiddle2
									{
										OFFSET -7.176498 0.000000 0.000000
										CHANNELS 3 Xrotation Yrotation Zrotation
										JOINT RightHandMiddle3
										{
											OFFSET -6.774902 0.000000 0.000000
											CHANNELS 3 Xrotation Yrotation Zrotation
											JOINT RightHandMiddle4
											{
												OFFSET -5.403328 0.000000 0.000000
												CHANNELS 3 Xrotation Yrotation Zrotation
												End Site
												{
													OFFSET 0.027702 5.403244 0.017457
												}
											}
										}
									}
								}
								JOINT RightHandRing1
								{
									OFFSET -22.908302 -0.839325 -6.020576
									CHANNELS 3 Xrotation Yrotation Zrotation
									JOINT RightHandRing2
									{
										OFFSET -6.337502 0.000000 0.000000
										CHANNELS 3 Xrotation Yrotation Zrotation
										JOINT RightHandRing3
										{
											OFFSET -5.779297 0.000000 0.000000
											CHANNELS 3 Xrotation Yrotation Zrotation
											JOINT RightHandRing4
											{
												OFFSET -4.965698 0.000000 0.000000
												CHANNELS 3 Xrotation Yrotation Zrotation
												End Site
												{
													OFFSET 0.000000 4.965668 0.016226
												}
											}
										}
									}
								}
								JOINT RightHandPinky1
								{
									OFFSET -20.037003 -1.530334 -10.950259
									CHANNELS 3 Xrotation Yrotation Zrotation
									JOINT RightHandPinky2
									{
										OFFSET -5.254700 0.000000 0.000000
										CHANNELS 3 Xrotation Yrotation Zrotation
										JOINT RightHandPinky3
										{
											OFFSET -4.810204 0.000000 0.000000
											CHANNELS 3 Xrotation Yrotation Zrotation
											JOINT RightHandPinky4
											{
												OFFSET -3.647202 0.000000 0.000000
												CHANNELS 3 Xrotation Yrotation Zrotation
												End Site
												{
													OFFSET 0.000000 3.647186 0.011917
												}
											}
										}
									}
								}
							}
						}
					}
				}
			}
		}
	}
	JOINT LeftUpLeg
	{
		OFFSET 15.427100 -6.655098 0.678600
		CHANNELS 3 Xrotation Yrotation Zrotation
		JOINT LeftLeg
		{
			OFFSET 4.081073 -39.591068 13.024000
			CHANNELS 3 Xrotation Yrotation Zrotation
			JOINT LeftFoot
			{
				OFFSET -4.081074 -37.707932 -15.979700
				CHANNELS 3 Xrotation Yrotation Zrotation
				JOINT LeftToeBase
				{
					OFFSET 5.346399 -15.068900 20.645000
					CHANNELS 3 Xrotation Yrotation Zrotation
					JOINT LeftToe_End
					{
						OFFSET 2.754700 0.931300 11.300900
						CHANNELS 3 Xrotation Yrotation Zrotation
						End Site
						{
							OFFSET 0.000000 11.669021 0.000000
						}
					}
				}
			}
		}
	}
	JOINT RightUpLeg
	{
		OFFSET -15.569500 -6.655098 0.678600
		CHANNELS 3 Xrotation Yrotation Zrotation
		JOINT RightLeg
		{
			OFFSET -4.081825 -39.591045 13.023800
			CHANNELS 3 Xrotation Yrotation Zrotation
			JOINT RightFoot
			{
				OFFSET 4.081824 -37.707954 -15.979600
				CHANNELS 3 Xrotation Yrotation Zrotation
				JOINT RightToeBase
				{
					OFFSET -5.346400 -15.068900 20.645000
					CHANNELS 3 Xrotation Yrotation Zrotation
					JOINT RightToe_End
					{
						OFFSET -2.754700 0.931300 11.300900
						CHANNELS 3 Xrotation Yrotation Zrotation
						End Site
						{
							OFFSET 0.000000 11.669021 0.000000
						}
					}
				}
			}
		}
	}
}
MOTION
Frames: 6
Frame Time: 0.033333
-0.481449 68.338402 0.839943 21.461021 38.691399 -13.815942 4.620593 -6.289123 2.522010 9.205439 -12.256920 3.178256 9.205458 -12.256925 3.178259 -2.942741 1.984335 -4.107512 -4.358892 -8.563022 5.794970 0.000000 -0.000001 0.000000 3.461547 -26.798365 -16.884200 -68.240550 -29.279792 -52.786096 90.295265 -24.490210 75.114753 2.876559 0.982692 -9.171634 -21.566225 -4.158663 0.489647 9.188203 30.565551 2.611342 0.000001 -0.000009 -0.000003 -0.000002 0.000000 -0.000000 -2.025223 -15.146984 -15.844347 -7.620778 -1.592346 -80.353323 0.000002 0.000000 0.000001 0.000001 -0.000001 0.000002 -0.999455 2.790081 -15.148972 -7.048590 -4.774220 -59.866697 -0.000001 0.000017 0.000005 0.000001 0.000000 -0.000000 -1.379325 13.352467 -9.242936 -0.873853 -5.460364 -70.426019 -0.000007 0.000009 -0.000002 -0.000001 0.000000 -0.000001 -0.607453 15.249500 -4.566219 0.652092 -7.406071 -56.810252 -0.000000 0.000000 -0.000002 -0.000001 0.000000 -0.000001 -1.355789 10.755532 5.819006 -55.618722 19.378269 64.920019 85.887873 26.358738 -75.186695 5.069433 -11.317938 -13.746207 -23.169320 -7.468516 -7.404108 20.207845 -9.885910 1.870665 0.000003 -0.000012 -0.000000 0.000000 0.000000 0.000001 -8.762217 7.156354 20.816938 -4.244049 0.754343 59.523726 -0.000000 -0.000000 0.000002 0.000002 0.000003 -0.000002 -8.987368 -5.587680 19.600978 -5.140550 2.009339 62.982083 0.000004 0.000009 0.000001 -0.000001 0.000002 0.000000 -5.542550 -4.418187 26.297268 -0.917574 5.815171 56.933199 0.000001 0.000001 -0.000002 -0.000001 0.000000 -0.000002 -0.297635 -13.241376 32.704827 -0.858986 10.492388 61.186774 0.000000 0.000000 0.000001 -0.000001 0.000000 0.000000 -38.677944 14.679566 20.203035 70.262709 2.813301 -12.526459 -46.081394 5.085328 -6.812575 1.817682 -0.539266 0.004522 -0.000000 -0.000000 0.000000 -74.607953 8.112812 -1.011469 64.869687 -11.566206 -6.463148 -5.103169 -1.488066 15.113255 -0.000558 -0.487077 0.001029 0.000000 0.000000 -0.000000 
-0.515211 68.868240 0.966221 20.678495 38.913777 -12.707432 4.603933 -6.281416 2.579702 9.183285 -12.211372 3.326156 9.183288 -12.211363 3.326159 -2.561827 2.217625 -3.903865 -3.468320 -8.407714 6.208726 -0.000002 0.000000 0.000000 3.535291 -27.496303 -16.424505 -66.000330 -27.791220 -51.170572 89.719371 -24.865924 76.558327 2.378019 0.974252 -8.832577 -21.566230 -4.158687 0.489632 9.312652 30.418347 3.037869 0.000005 -0.000010 -0.000002 0.000003 -0.000001 -0.000000 -1.312630 -15.392033 -13.966963 -7.622364 -1.592457 -80.257844 0.000001 0.000001 -0.000000 0.000002 -0.000000 0.000001 -0.890625 2.889665 -12.900885 -7.064483 -4.780793 -60.045054 0.000001 0.000015 0.000003 -0.000000 0.000003 -0.000003 -1.658500 13.225682 -7.303625 -0.865479 -5.457392 -70.321196 -0.000007 0.000008 -0.000000 0.000001 -0.000003 0.000000 -0.734688 14.883667 -3.732738 0.665291 -7.397623 -56.675206 0.000001 -0.000001 -0.000004 0.000001 -0.000001 -0.000004 -0.968390 11.897263 5.336152 -54.689342 19.027869 65.031010 85.651686 25.051783 -76.261234 5.640546 -11.284117 -12.893367 -22.244352 -7.814963 -6.992797 19.835851 -9.634338 1.794418 0.000003 -0.000012 0.000001 0.000001 0.000000 0.000000 -8.823278 7.163722 20.892717 -4.244893 0.752980 59.477349 -0.000001 -0.000000 0.000002 -0.000000 0.000002 -0.000000 -9.026770 -5.563636 19.557668 -5.136638 2.007341 62.911138 -0.000000 0.000007 0.000001 0.000000 -0.000002 0.000000 -5.573057 -4.416155 26.265431 -0.914486 5.813159 56.899000 -0.000003 0.000001 -0.000002 -0.000001 0.000000 -0.000003 -0.373051 -13.350534 31.792328 -0.837905 10.458328 60.892106 -0.000000 0.000001 -0.000000 -0.000001 0.000000 -0.000001 -37.623868 15.913574 19.783832 68.596539 1.587449 -12.773567 -45.186134 4.252702 -5.464347 1.431468 -0.508801 0.006123 -0.000000 -0.000001 0.000000 -73.444191 7.622986 -1.792641 64.395843 -10.558657 -6.336303 -5.321807 -1.422569 14.246304 -0.000535 -0.290366 0.001059 -0.000000 0.000000 -0.000000 
-0.438633 69.450836 1.040064 19.692004 38.727367 -11.480413 4.586663 -6.209193 2.633752 9.167609 -12.013545 3.518592 9.167622 -12.013550 3.518593 -1.939935 2.541149 -3.575546 -2.292128 -8.119900 6.782054 0.000003 0.000000 0.000000 3.737189 -28.020607 -16.231712 -64.428416 -27.013033 -49.544160 88.446654 -25.604077 76.451380 1.599890 0.537769 -8.020672 -21.566218 -4.158649 0.489649 9.436729 30.274906 3.465569 0.000001 -0.000008 -0.000002 -0.000002 -0.000001 -0.000002 -0.034844 -15.813339 -10.762628 -7.623105 -1.592127 -80.268281 -0.000000 -0.000000 0.000001 -0.000002 -0.000001 0.000001 -0.751280 2.894854 -9.701512 -7.097729 -4.785750 -60.272410 -0.000001 0.000018 0.000006 0.000002 0.000001 -0.000000 -2.027089 13.050777 -4.592732 -0.870801 -5.459275 -70.387715 -0.000006 0.000008 -0.000001 0.000001 -0.000000 -0.000002 -0.882437 14.504945 -2.682542 0.665951 -7.383109 -56.527674 0.000000 0.000001 -0.000003 0.000000 0.000000 -0.000005 -0.713136 12.428286 5.163118 -54.776683 19.593455 65.655378 84.837650 23.927374 -75.509640 6.396012 -10.993544 -12.323622 -21.194424 -8.043253 -6.508264 19.310138 -9.315911 1.676576 0.000003 -0.000012 -0.000003 -0.000000 0.000000 -0.000001 -8.892300 7.187229 20.864358 -4.238683 0.750806 59.383516 -0.000002 0.000000 -0.000001 -0.000002 0.000001 -0.000001 -9.101326 -5.524348 19.552562 -5.129066 2.003458 62.773468 0.000002 0.000006 -0.000001 0.000002 0.000000 -0.000001 -5.624259 -4.411790 26.156648 -0.904164 5.806447 56.784526 -0.000002 0.000000 -0.000000 -0.000001 -0.000000 0.000000 -0.455916 -13.447255 30.945231 -0.820429 10.429543 60.644737 -0.000002 0.000000 0.000003 -0.000001 -0.000001 -0.000001 -36.248603 16.758054 18.904639 67.244216 1.726437 -12.775893 -44.137307 4.067549 -5.068506 0.084434 -0.487123 0.000435 0.000000 0.000000 -0.000000 -72.246415 7.130449 -2.423842 63.728493 -9.800954 -6.080480 -5.305533 -1.300463 13.295696 -0.000534 -0.150792 0.001062 0.000000 0.000000 0.000000 
-0.313017 69.981270 0.907059 18.576163 38.298565 -10.233139 4.587628 -6.085509 2.753869 9.175060 -11.734256 3.718052 9.175064 -11.734251 3.718050 -1.142603 3.222714 -3.567417 -1.126042 -7.314865 6.992083 0.000000 0.000000 0.000000 4.066238 -28.432807 -16.128170 -63.580913 -26.627207 -48.179673 86.548305 -26.504141 74.998592 0.678258 -0.420067 -6.913352 -21.566035 -4.158635 0.489675 9.557256 30.126534 3.894243 0.000003 -0.000009 -0.000003 0.000001 0.000001 0.000001 1.226574 -16.069856 -7.680582 -7.603724 -1.599527 -80.078360 0.000003 0.000000 0.000002 0.000002 -0.000000 0.000001 -0.610234 2.956594 -6.737591 -7.111096 -4.786790 -60.361633 -0.000001 0.000015 0.000002 -0.000000 0.000000 0.000001 -2.353732 12.855493 -2.035821 -0.863850 -5.456825 -70.300876 -0.000006 0.000008 -0.000001 0.000001 -0.000002 0.000003 -0.990974 14.033805 -1.768543 0.666997 -7.371770 -56.414098 0.000001 -0.000001 -0.000000 -0.000001 -0.000000 0.000001 -0.548325 12.497715 5.142451 -55.973619 20.394180 67.137522 83.765160 22.418337 -73.212791 7.222975 -10.458754 -12.433958 -20.854289 -8.281376 -6.298592 19.224271 -9.212705 1.646305 0.000003 -0.000012 -0.000002 0.000000 -0.000000 0.000004 -8.913420 7.225497 20.633991 -4.235058 0.750012 59.302564 -0.000002 -0.000002 0.000001 0.000002 -0.000000 0.000001 -9.117077 -5.496503 19.302630 -5.129814 2.003839 62.786917 0.000002 0.000006 -0.000001 0.000002 -0.000003 0.000002 -5.680330 -4.405280 25.951020 -0.902114 5.805122 56.761737 0.000000 0.000000 -0.000002 -0.000001 0.000001 -0.000001 -0.493881 -13.532492 30.372618 -0.825632 10.432326 60.679134 0.000001 -0.000000 0.000002 -0.000003 -0.000000 -0.000000 -34.803465 16.952791 18.328644 66.636268 1.702556 -12.787200 -43.028279 4.653075 -5.135148 -1.243047 -0.510509 0.038902 -0.000000 -0.000000 0.000000 -71.182920 6.771409 -2.849495 62.927469 -9.430301 -5.941371 -4.916686 -1.164773 12.581067 -0.000507 -0.112712 0.001085 0.000000 0.000000 -0.000000 
-0.191025 70.502701 0.520639 17.399053 37.821414 -8.951342 4.615210 -5.958676 2.908041 9.223919 -11.445165 3.888267 9.223911 -11.445162 3.888269 -0.246030 4.314927 -3.902465 -0.180762 -5.942380 6.433171 -0.000001 0.000000 0.000000 4.199755 -28.942599 -15.826346 -62.970560 -25.993581 -47.050670 84.331253 -27.335966 72.874799 -0.302568 -1.605303 -5.638860 -21.550025 -3.951831 0.495890 9.860257 30.412343 4.296992 0.000002 -0.000009 -0.000003 0.000001 0.000001 -0.000000 2.135114 -16.073862 -6.728474 -7.531804 -1.620641 -79.517069 -0.000002 -0.000002 0.000001 0.000001 0.000001 -0.000001 -0.611234 3.285287 -5.568319 -7.122527 -4.785652 -60.459544 -0.000003 0.000016 0.000001 -0.000001 0.000003 -0.000002 -2.526615 12.715106 -1.533995 -0.839572 -5.426813 -69.754427 -0.000007 0.000006 0.000001 0.000000 -0.000002 0.000001 -1.121967 14.006982 -1.463573 0.667771 -7.363786 -56.322450 -0.000001 0.000001 0.000003 -0.000000 0.000000 -0.000000 -0.487435 12.380891 5.144412 -57.842666 21.090388 69.206311 82.655254 20.651176 -70.055222 8.106390 -9.823219 -12.965292 -20.928321 -8.436077 -6.302302 19.346161 -9.277201 1.685967 0.000003 -0.000012 -0.000001 0.000000 0.000000 0.000001 -8.913628 7.295178 20.155106 -4.234796 0.749888 59.311095 -0.000001 0.000000 -0.000000 -0.000001 0.000001 0.000001 -9.182137 -5.414520 18.712664 -5.132731 2.003640 62.846804 0.000001 0.000006 -0.000003 0.000001 0.000002 0.000000 -5.749492 -4.389123 25.549067 -0.902836 5.805567 56.769729 0.000001 0.000000 -0.000003 -0.000003 -0.000000 -0.000001 -0.535972 -13.595832 29.893955 -0.843294 10.446207 60.919127 -0.000000 0.000000 0.000002 0.000001 -0.000000 0.000001 -33.110448 16.625995 18.133937 66.399964 1.505426 -12.433745 -41.299535 6.068637 -6.168594 -3.916208 -0.587424 -0.013118 0.000000 -0.000001 0.000000 -70.218894 6.650615 -3.060748 61.942583 -9.510603 -6.153259 -4.140990 -1.037645 12.293920 -0.000494 -0.291949 0.001079 0.000000 0.000000 -0.000000 
-0.122528 71.027367 -0.143843 16.118731 37.391925 -7.508659 4.698759 -5.841906 3.057815 9.374017 -11.195676 3.978728 9.374021 -11.195676 3.978727 0.733858 5.710427 -4.484903 0.407521 -3.954428 5.023157 0.000003 0.000001 -0.000001 3.972865 -29.572001 -15.189120 -62.378888 -24.996054 -46.046256 81.731744 -27.985809 70.283377 -1.170098 -3.166006 -4.224474 -21.510912 -3.418202 0.512569 10.449048 31.384934 4.653682 0.000002 -0.000009 -0.000003 0.000003 -0.000000 -0.000000 2.581611 -16.084612 -9.028400 -7.444941 -1.641731 -78.849794 0.000000 -0.000001 0.000003 0.000004 0.000001 0.000000 -0.849969 3.552176 -6.964212 -7.165023 -4.778403 -60.735258 -0.000002 0.000016 0.000001 0.000002 -0.000002 0.000001 -2.517120 12.289185 -4.075361 -0.801930 -5.379870 -68.902634 -0.000006 0.000009 -0.000000 0.000001 0.000000 -0.000001 -1.331884 14.662024 -1.843997 0.670086 -7.351213 -56.154865 0.000001 0.000001 -0.000001 0.000000 -0.000001 -0.000003 -0.468473 12.284245 5.046019 -60.070284 22.011900 71.318663 81.372265 19.068555 -66.381495 8.992703 -9.336326 -13.647613 -20.397518 -8.923750 -6.103929 19.259187 -9.277939 1.716210 0.000003 -0.000012 -0.000004 -0.000000 -0.000000 0.000000 -8.988860 7.401754 19.595545 -4.248993 0.755395 59.479814 -0.000003 -0.000001 0.000001 -0.000005 0.000001 -0.000000 -9.257853 -5.337883 18.286938 -5.144437 2.005573 63.075533 0.000003 0.000007 -0.000000 -0.000002 0.000002 -0.000004 -5.874609 -4.365746 25.146327 -0.915921 5.814095 56.914833 -0.000000 -0.000000 -0.000000 -0.000000 -0.000000 0.000001 -0.534399 -13.710639 29.416207 -0.850908 10.455104 61.116259 -0.000000 0.000001 -0.000000 -0.000000 0.000001 -0.000001 -31.653316 15.889405 18.532750 67.105926 1.785345 -11.613924 -37.991421 7.092822 -8.942896 -9.048440 -0.644243 -0.016148 0.000000 0.000001 0.000000 -69.300554 6.860165 -3.096864 60.769873 -9.676531 -6.756116 -3.012639 -0.936763 12.403054 -0.000369 -0.619107 0.001151 -0.000000 0.000000 -0.000000 
